<svg height="28" width="28" xmlns="http://www.w3.org/2000/svg" viewBox="0 0 32 32" enable-background="new 0 0 32 32" xml:space="preserve"><path fill="#3681CF" d="M16,0L16,0c8.837,0,16,7.163,16,16l0,0c0,8.837-7.163,16-16,16l0,0C7.163,32,0,24.837,0,16l0,0 C0,7.163,7.163,0,16,0z"></path><path fill="#FFFFFF" d="M5,11.342L5.196,11h12.962l0.791,0.791l-0.245,0.391H17.71v1.296c0,0.359,0.001,0.731,0.004,1.117 c0.003,0.386,0.004,0.766,0.004,1.141s0.001,0.734,0.004,1.076c0.003,0.342,0.004,0.65,0.004,0.921c0,0.337,0.001,0.671,0.004,1.003 c0.003,0.332,0.007,0.645,0.012,0.942c0.005,0.296,0.014,0.565,0.024,0.807c0.011,0.242,0.025,0.441,0.041,0.599L17.213,21.5 c-0.043-0.038-0.111-0.098-0.204-0.179c-0.093-0.081-0.187-0.166-0.285-0.253c-0.097-0.087-0.19-0.168-0.277-0.245 c-0.087-0.076-0.15-0.13-0.188-0.163v-0.016c-0.19-0.473-0.448-0.876-0.774-1.211c-0.326-0.334-0.669-0.616-1.027-0.844 c-0.332,0.386-0.722,0.682-1.17,0.889c-0.448,0.206-0.923,0.31-1.423,0.31c-0.364,0-0.733-0.058-1.104-0.175 c-0.373-0.117-0.737-0.298-1.092-0.542c-0.356-0.245-0.698-0.559-1.027-0.942c-0.329-0.383-0.632-0.838-0.909-1.365 c-0.174-0.326-0.333-0.665-0.477-1.015c-0.144-0.351-0.273-0.689-0.387-1.015c-0.114-0.326-0.215-0.63-0.302-0.913 c-0.087-0.283-0.16-0.522-0.22-0.717c0.071-0.043,0.173-0.09,0.306-0.139c0.133-0.049,0.235-0.079,0.306-0.09 c0.076,0.147,0.176,0.329,0.302,0.546c0.125,0.217,0.264,0.448,0.416,0.693c0.19,0.625,0.432,1.172,0.726,1.639 c0.293,0.468,0.616,0.856,0.966,1.166c0.35,0.31,0.718,0.542,1.101,0.697c0.383,0.155,0.757,0.232,1.121,0.232 c0.619,0,1.16-0.209,1.622-0.628c0.201-0.185,0.353-0.394,0.456-0.628c0.103-0.234,0.171-0.462,0.204-0.685 c0.033-0.223,0.038-0.429,0.016-0.62c-0.022-0.19-0.054-0.337-0.098-0.44c-0.12-0.141-0.266-0.247-0.44-0.318 c-0.174-0.071-0.353-0.106-0.538-0.106c-0.054,0-0.093,0.003-0.114,0.008c0.005,0.016,0.008,0.057,0.008,0.122 c0,0.196-0.038,0.383-0.114,0.562c-0.076,0.179-0.182,0.336-0.318,0.469c-0.136,0.133-0.3,0.24-0.493,0.322 c-0.193,0.082-0.406,0.122-0.64,0.122c-0.206,0-0.403-0.043-0.591-0.13c-0.188-0.087-0.352-0.204-0.493-0.351 c-0.142-0.147-0.253-0.319-0.334-0.518C9.64,14.833,9.6,14.622,9.6,14.399v-0.008c0-0.255,0.049-0.484,0.147-0.685 c0.098-0.201,0.232-0.372,0.403-0.514c0.171-0.141,0.375-0.25,0.611-0.326c0.236-0.076,0.496-0.117,0.778-0.122 c0.185,0,0.397,0.02,0.636,0.061c0.239,0.041,0.488,0.117,0.746,0.228c0.258,0.112,0.516,0.265,0.774,0.461 c0.258,0.196,0.499,0.448,0.721,0.758c0.359,0.495,0.586,0.996,0.681,1.504c0.095,0.508,0.102,0.985,0.02,1.431 c0.119,0.163,0.233,0.337,0.342,0.522c0.109,0.185,0.212,0.37,0.31,0.555c0.098,0.185,0.188,0.366,0.269,0.542 c0.081,0.177,0.152,0.341,0.212,0.493c-0.006,0,0.014-0.006,0.057-0.017c-0.027-0.141-0.049-0.304-0.065-0.489 c-0.016-0.185-0.024-0.399-0.024-0.644v-1.72c0-0.603-0.001-1.177-0.004-1.72c-0.003-0.543-0.004-1.038-0.004-1.484v-1.043H5.758 L5,11.342z"></path><path fill="#FFFFFF" d="M19.796,16.511c0.054-0.087,0.115-0.181,0.183-0.281c0.068-0.101,0.14-0.197,0.216-0.289h0.929 c0.201,0,0.418-0.001,0.652-0.004c0.233-0.003,0.473-0.007,0.718-0.012c0-0.359,0.003-0.696,0.008-1.011 c0.006-0.315,0.008-0.587,0.008-0.815v-0.375c0.087-0.065,0.186-0.133,0.298-0.204c0.111-0.071,0.213-0.136,0.306-0.196 c0.054-0.033,0.109-0.065,0.163-0.098c0.054-0.033,0.111-0.068,0.171-0.106l0.432,0.277c-0.006,0.12-0.008,0.242-0.008,0.367 c0,0.125,0,0.255,0,0.391c-0.006,0.234-0.008,0.501-0.008,0.803c0,0.302-0.003,0.618-0.008,0.95c0.343-0.005,0.667-0.01,0.974-0.012 c0.307-0.003,0.578-0.007,0.811-0.012c0.136-0.005,0.268-0.008,0.395-0.008c0.128,0,0.251,0,0.371,0l0.31,0.407l-0.179,0.31 c-0.054,0.092-0.114,0.189-0.179,0.289c-0.065,0.101-0.13,0.197-0.196,0.289c-0.206,0-0.519,0.006-0.937,0.016 c-0.419,0.011-0.878,0.016-1.378,0.016c0,0.244-0.002,0.481-0.004,0.709c-0.003,0.228-0.005,0.441-0.008,0.64 c-0.003,0.198-0.006,0.375-0.008,0.53c-0.003,0.155-0.004,0.281-0.004,0.379c-0.093,0.071-0.193,0.139-0.302,0.204 c-0.109,0.065-0.209,0.125-0.301,0.179c-0.054,0.027-0.109,0.057-0.163,0.09c-0.054,0.033-0.111,0.065-0.171,0.098l-0.432-0.277 c0-0.119,0-0.243,0-0.371c0-0.128,0.003-0.26,0.008-0.395c0.005-0.234,0.008-0.502,0.008-0.803c0-0.302,0.003-0.624,0.008-0.966 c-0.342,0.006-0.667,0.01-0.974,0.012c-0.307,0.003-0.583,0.004-0.827,0.004c-0.142,0.005-0.276,0.008-0.404,0.008 c-0.128,0-0.251,0-0.371,0l-0.285-0.44L19.796,16.511z"></path></svg>