<svg height="28" width="28" xmlns="http://www.w3.org/2000/svg" viewBox="0 0 32 32" enable-background="new 0 0 32 32" xml:space="preserve"><path fill="#595959" d="M16,0L16,0c8.837,0,16,7.163,16,16l0,0c0,8.837-7.163,16-16,16l0,0C7.163,32,0,24.837,0,16l0,0 C0,7.163,7.163,0,16,0z"></path><path fill="#FFFFFF" d="M12,20h8v4h-8V20z M21.6,22.4v-4H10.4v4H8.8c-0.212,0-0.416-0.084-0.566-0.234C8.084,22.016,8,21.812,8,21.6 v-8c0-0.212,0.084-0.416,0.234-0.566C8.384,12.884,8.588,12.8,8.8,12.8h14.4c0.212,0,0.416,0.084,0.566,0.234 C23.916,13.184,24,13.388,24,13.6v8c0,0.212-0.084,0.416-0.234,0.566c-0.15,0.15-0.353,0.234-0.566,0.234H21.6z M10.4,14.4V16h2.4 v-1.6H10.4z M12,8h8c0.212,0,0.416,0.084,0.566,0.234C20.716,8.384,20.8,8.588,20.8,8.8v2.4h-9.6V8.8 c0-0.212,0.084-0.416,0.234-0.566C11.584,8.084,11.788,8,12,8z"></path></svg>