<svg xmlns="http://www.w3.org/2000/svg" xml:space="preserve" viewBox="0 0 32 32">
  <path fill="#E0E0E0" d="M16 0c8.837 0 16 7.163 16 16s-7.163 16-16 16S0 24.837 0 16 7.163 0 16 0z"/>
  <path fill="#2B2B2B" d="M9.778 8h12.444c.206 0 .404.082.55.228.146.146.228.343.228.55V23.77c0 .065-.016.129-.047.186-.031.057-.076.106-.13.141-.055.035-.117.056-.182.062-.065.005-.13-.006-.189-.033L16 21.246l-6.452 2.879c-.059.026-.124.038-.189.033-.065-.005-.127-.026-.181-.061-.054-.035-.099-.084-.13-.14-.032-.058-.048-.122-.048-.187V8.778c0-.206.082-.404.228-.55.146-.146.343-.228.55-.228zm11.666 13.973V9.556H10.556v12.417L16 19.543l5.444 2.43zM16 16.944l-2.286 1.202.436-2.545-1.849-1.803 2.556-.372L16 11.111l1.143 2.316 2.555.372-1.849 1.803.436 2.545L16 16.944z"/>
</svg>
