<svg xmlns="http://www.w3.org/2000/svg" xml:space="preserve" viewBox="0 0 32 32">
  <path fill="#3681CF" d="M16 0c8.837 0 16 7.163 16 16s-7.163 16-16 16S0 24.837 0 16 7.163 0 16 0z"/>
  <path fill="#FFF" d="M5 11.342 5.196 11h12.962l.791.791-.245.391h-.994v1.296c0 .359.001.731.004 1.117s.004.766.004 1.141.001.734.004 1.076c.003.342.004.65.004.921 0 .337.001.671.004 1.003.003.332.007.645.012.942.005.296.014.565.024.807.011.242.025.441.041.599l-.594.416c-.043-.038-.111-.098-.204-.179-.093-.081-.187-.166-.285-.253-.097-.087-.19-.168-.277-.245-.087-.076-.15-.13-.188-.163v-.016c-.19-.473-.448-.876-.774-1.211-.326-.334-.669-.616-1.027-.844-.332.386-.722.682-1.17.889-.448.206-.923.31-1.423.31-.364 0-.733-.058-1.104-.175-.373-.117-.737-.298-1.092-.542-.356-.245-.698-.559-1.027-.942-.329-.383-.632-.838-.909-1.365-.174-.326-.333-.665-.477-1.015-.144-.351-.273-.689-.387-1.015-.114-.326-.215-.63-.302-.913-.087-.283-.16-.522-.22-.717.071-.043.173-.09.306-.139.133-.049.235-.079.306-.09.076.147.176.329.302.546.125.217.264.448.416.693.19.625.432 1.172.726 1.639.293.468.616.856.966 1.166.35.31.718.542 1.101.697.383.155.757.232 1.121.232.619 0 1.16-.209 1.622-.628.201-.185.353-.394.456-.628.103-.234.171-.462.204-.685.033-.223.038-.429.016-.62-.022-.19-.054-.337-.098-.44-.12-.141-.266-.247-.44-.318-.174-.071-.353-.106-.538-.106-.054 0-.093.003-.114.008.005.016.008.057.008.122 0 .196-.038.383-.114.562-.076.179-.182.336-.318.469-.136.133-.3.24-.493.322-.193.082-.406.122-.64.122-.206 0-.403-.043-.591-.13-.188-.087-.352-.204-.493-.351-.142-.147-.253-.319-.334-.518-.084-.196-.124-.407-.124-.63v-.008c0-.255.049-.484.147-.685.098-.201.232-.372.403-.514.171-.141.375-.25.611-.326.236-.076.496-.117.778-.122.185 0 .397.02.636.061.239.041.488.117.746.228.258.112.516.265.774.461s.499.448.721.758c.359.495.586.996.681 1.504.095.508.102.985.02 1.431.119.163.233.337.342.522.109.185.212.37.31.555.098.185.188.366.269.542.081.177.152.341.212.493-.006 0 .014-.006.057-.017-.027-.141-.049-.304-.065-.489s-.024-.399-.024-.644v-1.72c0-.603-.001-1.177-.004-1.72-.003-.543-.004-1.038-.004-1.484v-1.043H5.758L5 11.342zm14.796 5.169c.054-.087.115-.181.183-.281.068-.101.14-.197.216-.289h.929c.201 0 .418-.001.652-.004.233-.003.473-.007.718-.012 0-.359.003-.696.008-1.011.006-.315.008-.587.008-.815v-.375c.087-.065.186-.133.298-.204.111-.071.213-.136.306-.196.054-.033.109-.065.163-.098.054-.033.111-.068.171-.106l.432.277c-.006.12-.008.242-.008.367v.391c-.006.234-.008.501-.008.803 0 .302-.003.618-.008.95.343-.005.667-.01.974-.012.307-.003.578-.007.811-.012.136-.005.268-.008.395-.008h.371l.31.407-.179.31c-.054.092-.114.189-.179.289-.065.101-.13.197-.196.289-.206 0-.519.006-.937.016-.419.011-.878.016-1.378.016 0 .244-.002.481-.004.709-.003.228-.005.441-.008.64-.003.198-.006.375-.008.53-.003.155-.004.281-.004.379-.093.071-.193.139-.302.204-.109.065-.209.125-.301.179-.054.027-.109.057-.163.09-.054.033-.111.065-.171.098l-.432-.277v-.371c0-.128.003-.26.008-.395.005-.234.008-.502.008-.803 0-.302.003-.624.008-.966-.342.006-.667.01-.974.012-.307.003-.583.004-.827.004-.142.005-.276.008-.404.008h-.371l-.285-.44.178-.293z"/>
</svg>
