<svg xmlns="http://www.w3.org/2000/svg" xml:space="preserve" viewBox="0 0 32 32">
  <path fill="#595959" d="M16 0c8.837 0 16 7.163 16 16s-7.163 16-16 16S0 24.837 0 16 7.163 0 16 0z"/>
  <path fill="#FFF" d="M12 20h8v4h-8v-4zm9.6 2.4v-4H10.4v4H8.8c-.212 0-.416-.084-.566-.234-.15-.15-.234-.354-.234-.566v-8c0-.212.084-.416.234-.566.15-.15.354-.234.566-.234h14.4c.212 0 .416.084.566.234.15.15.234.354.234.566v8c0 .212-.084.416-.234.566-.15.15-.353.234-.566.234h-1.6zm-11.2-8V16h2.4v-1.6h-2.4zM12 8h8c.212 0 .416.084.566.234.15.15.234.354.234.566v2.4h-9.6V8.8c0-.212.084-.416.234-.566.15-.15.354-.234.566-.234z"/>
</svg>
