<svg xmlns="http://www.w3.org/2000/svg" xml:space="preserve" viewBox="0 0 32 32">
  <path fill="#1DA1F2" d="M16 0c8.837 0 16 7.163 16 16s-7.163 16-16 16S0 24.837 0 16 7.163 0 16 0z"/>
  <path fill="#FFF" d="M26.162 9.656c-.764.338-1.573.56-2.402.658.874-.523 1.528-1.345 1.84-2.314-.82.488-1.719.83-2.656 1.015-.629-.673-1.464-1.12-2.373-1.27-.909-.15-1.843.004-2.656.439-.813.435-1.459 1.126-1.838 1.966-.379.84-.47 1.782-.259 2.679-1.663-.083-3.29-.516-4.775-1.268-1.485-.753-2.795-1.81-3.845-3.102-.372.638-.567 1.364-.566 2.103 0 1.45.738 2.731 1.86 3.481-.664-.021-1.313-.2-1.894-.523v.052c0 .966.334 1.902.946 2.649.611.747 1.463 1.26 2.409 1.452-.616.167-1.263.192-1.89.072.267.831.787 1.558 1.488 2.079.701.521 1.547.81 2.419.826-.868.681-1.861 1.185-2.923 1.482-1.062.297-2.173.382-3.268.25 1.912 1.229 4.137 1.882 6.41 1.88 7.693 0 11.9-6.373 11.9-11.9 0-.18-.005-.362-.013-.54.819-.592 1.526-1.325 2.087-2.165l-.001-.001z"/>
</svg>
