<svg height="28" width="28" xmlns="http://www.w3.org/2000/svg" viewBox="0 0 32 32" enable-background="new 0 0 32 32" xml:space="preserve"><path fill="#0573E6" d="M16,0L16,0c8.837,0,16,7.163,16,16l0,0c0,8.837-7.163,16-16,16l0,0C7.163,32,0,24.837,0,16l0,0 C0,7.163,7.163,0,16,0z"></path><path fill="#FFFFFF" d="M9.778,8h12.444c0.206,0,0.404,0.082,0.55,0.228C22.918,8.374,23,8.571,23,8.778V23.77 c0,0.065-0.016,0.129-0.047,0.186c-0.031,0.057-0.076,0.106-0.13,0.141c-0.055,0.035-0.117,0.056-0.182,0.062 c-0.065,0.005-0.13-0.006-0.189-0.033L16,21.246l-6.452,2.879c-0.059,0.026-0.124,0.038-0.189,0.033 c-0.065-0.005-0.127-0.026-0.181-0.061c-0.054-0.035-0.099-0.084-0.13-0.14C9.016,23.899,9,23.835,9,23.77V8.778 c0-0.206,0.082-0.404,0.228-0.55C9.374,8.082,9.571,8,9.778,8L9.778,8z M16,16.944l2.286,1.202l-0.436-2.545l1.849-1.803 l-2.556-0.372L16,11.111l-1.143,2.316l-2.555,0.372l1.849,1.803l-0.436,2.545L16,16.944z"></path></svg>