<svg xmlns="http://www.w3.org/2000/svg" width="28" height="28" viewBox="0 0 28 28"><g id="Group_3804" data-name="Group 3804" transform="translate(-179 -383)"><g id="Group_3682" data-name="Group 3682" transform="translate(-368 -131)"><circle id="Ellipse_3" cx="14" cy="14" r="14" class="cls-1" data-name="Ellipse 3" transform="translate(547 514)" fill="#121212"></circle><path id="Path_185" d="M13.735 67.467A.165.165 0 0 1 14 67.6v5.592a1.313 1.313 0 0 1-1.312 1.308H1.313A1.313 1.313 0 0 1 0 73.188V67.6a.164.164 0 0 1 .265-.129c.612.476 1.425 1.08 4.214 3.106A4.892 4.892 0 0 0 7 71.878a4.894 4.894 0 0 0 2.524-1.3c2.789-2.028 3.598-2.635 4.211-3.111zM7 71c.634.011 1.548-.8 2.007-1.132 3.629-2.633 3.9-2.863 4.741-3.519a.654.654 0 0 0 .252-.517v-.52A1.313 1.313 0 0 0 12.688 64H1.313A1.313 1.313 0 0 0 0 65.313v.52a.658.658 0 0 0 .252.517c.837.654 1.113.886 4.741 3.519C5.452 70.2 6.366 71.011 7 71z" class="cls-2" data-name="Path 185" transform="translate(554 458)" fill="#ffffff"></path></g></g></svg>