<svg xmlns="http://www.w3.org/2000/svg" width="28" height="28" viewBox="0 0 28 28"><g id="Group_3805" data-name="Group 3805" transform="translate(-179 -427)"><g id="Group_3675" data-name="Group 3675" transform="translate(-474 -24)"><g id="Group_3674" data-name="Group 3674"><circle id="Ellipse_3" cx="14" cy="14" r="14" class="cls-1" data-name="Ellipse 3" transform="translate(653 451)" fill="#121212"></circle></g><path fill="#ffffff" id="Path_181" d="M8.93 5.069a4.154 4.154 0 0 1 .01 5.868l-.01.01-1.837 1.837a4.156 4.156 0 0 1-5.878-5.878L2.23 5.892a.437.437 0 0 1 .746.29 5.039 5.039 0 0 0 .265 1.442.44.44 0 0 1-.1.454l-.358.358a1.969 1.969 0 1 0 2.766 2.8L7.383 9.4a1.968 1.968 0 0 0 0-2.784 2.048 2.048 0 0 0-.283-.235.438.438 0 0 1-.19-.345 1.089 1.089 0 0 1 .32-.815l.576-.576a.439.439 0 0 1 .563-.045 4.167 4.167 0 0 1 .561.47zm3.854-3.854a4.161 4.161 0 0 0-5.878 0L5.069 3.052l-.01.01A4.157 4.157 0 0 0 5.63 9.4a.439.439 0 0 0 .563-.047l.576-.576a1.089 1.089 0 0 0 .32-.815.438.438 0 0 0-.19-.345 2.048 2.048 0 0 1-.283-.234 1.968 1.968 0 0 1 0-2.784l1.837-1.837a1.969 1.969 0 1 1 2.766 2.8l-.358.358a.44.44 0 0 0-.1.454 5.039 5.039 0 0 1 .265 1.442.437.437 0 0 0 .746.29l1.015-1.015a4.161 4.161 0 0 0 0-5.878z" class="cls-2" data-name="Path 181" transform="translate(660 458)"></path></g></g></svg>