<svg height="28" width="28" xmlns="http://www.w3.org/2000/svg" x="0px" y="0px" viewBox="0 0 32 32" enable-background="new 0 0 32 32" xml:space="preserve"><path fill="#0072B1" d="M16,0L16,0c8.837,0,16,7.163,16,16l0,0c0,8.837-7.163,16-16,16l0,0C7.163,32,0,24.837,0,16l0,0 C0,7.163,7.163,0,16,0z"></path><path fill="#FFFFFF" d="M11.333,9.667c0,0.442-0.176,0.866-0.489,1.178c-0.313,0.312-0.737,0.488-1.179,0.488 c-0.442,0-0.866-0.176-1.178-0.489C8.175,10.532,8,10.108,8,9.666C8,9.224,8.176,8.8,8.489,8.488C8.801,8.175,9.225,8,9.667,8 c0.442,0,0.866,0.176,1.178,0.489S11.333,9.225,11.333,9.667L11.333,9.667z M11.383,12.567H8.05V23h3.333V12.567z M16.649,12.567 h-3.316V23h3.283v-5.475c0-3.05,3.975-3.333,3.975,0V23h3.291v-6.608c0-5.141-5.883-4.95-7.266-2.425L16.649,12.567L16.649,12.567z"></path></svg>