<svg xmlns="http://www.w3.org/2000/svg" height="28" width="28" viewBox="0 0 32 32" enable-background="new 0 0 32 32" xml:space="preserve"><path fill="#1DA1F2" d="M16,0L16,0c8.837,0,16,7.163,16,16l0,0c0,8.837-7.163,16-16,16l0,0C7.163,32,0,24.837,0,16l0,0 C0,7.163,7.163,0,16,0z"></path><path fill="#FFFFFF" d="M26.162,9.656c-0.764,0.338-1.573,0.56-2.402,0.658C24.634,9.791,25.288,8.969,25.6,8 c-0.82,0.488-1.719,0.83-2.656,1.015c-0.629-0.673-1.464-1.12-2.373-1.27c-0.909-0.15-1.843,0.004-2.656,0.439 c-0.813,0.435-1.459,1.126-1.838,1.966c-0.379,0.84-0.47,1.782-0.259,2.679c-1.663-0.083-3.29-0.516-4.775-1.268 c-1.485-0.753-2.795-1.81-3.845-3.102c-0.372,0.638-0.567,1.364-0.566,2.103c0,1.45,0.738,2.731,1.86,3.481 c-0.664-0.021-1.313-0.2-1.894-0.523v0.052c0,0.966,0.334,1.902,0.946,2.649c0.611,0.747,1.463,1.26,2.409,1.452 c-0.616,0.167-1.263,0.192-1.89,0.072c0.267,0.831,0.787,1.558,1.488,2.079c0.701,0.521,1.547,0.81,2.419,0.826 c-0.868,0.681-1.861,1.185-2.923,1.482c-1.062,0.297-2.173,0.382-3.268,0.25c1.912,1.229,4.137,1.882,6.41,1.88 c7.693,0,11.9-6.373,11.9-11.9c0-0.18-0.005-0.362-0.013-0.54c0.819-0.592,1.526-1.325,2.087-2.165L26.162,9.656z"></path></svg>